<svg width="48" height="48" viewBox="0 0 48 48" fill="none" xmlns="http://www.w3.org/2000/svg">
<rect width="48" height="48" fill="#323238"/>
<path d="M23.5 9.32001C14.1104 9.32001 6.47998 16.1255 6.47998 24.5C6.47998 32.8745 14.1104 39.68 23.5 39.68C32.8896 39.68 40.52 32.8745 40.52 24.5C40.52 16.1255 32.8896 9.32001 23.5 9.32001ZM23.5 10.64C32.0894 10.64 39.04 16.8392 39.04 24.5C39.04 24.5471 39.0362 24.5935 39.0356 24.6405C38.5623 24.6015 38.0155 24.5645 37.3201 24.5425C36.3368 24.5114 35.0975 24.5205 33.6923 24.5825C33.7444 24.2589 33.781 23.9307 33.7819 23.5938C33.8536 22.3579 33.3882 21.2016 32.6315 20.1804C32.8143 19.6169 33.0288 18.9001 33.0824 18.0869C33.1435 17.1601 33.0538 16.1324 32.2196 15.4379L32.0056 15.26H31.7137C29.7282 15.26 28.3692 16.0013 27.5382 16.589C26.3383 16.1748 24.989 15.92 23.5 15.92C22.0025 15.92 20.6403 16.1783 19.391 16.5916C18.5604 16.0036 17.2002 15.26 15.2126 15.26H14.9221L14.7081 15.4366C13.8955 16.1096 13.8206 17.1092 13.8713 18.0315C13.916 18.8448 14.1181 19.5844 14.2977 20.1752C13.5281 21.2164 13.0663 22.4025 13.0663 23.5757C13.0663 23.9134 13.1015 24.2427 13.153 24.567C11.8167 24.5118 10.6255 24.5011 9.6799 24.5309C8.98452 24.5529 8.43761 24.5896 7.96432 24.6289C7.96387 24.5858 7.95998 24.5432 7.95998 24.5C7.95998 16.8392 14.9106 10.64 23.5 10.64ZM15.6534 16.6664C17.1464 16.7926 18.2697 17.3872 18.7897 17.7995L19.1366 18.0727L19.5644 17.9168C20.7347 17.487 22.0399 17.24 23.5 17.24C24.96 17.24 26.2657 17.4882 27.3474 17.9103L27.781 18.0805L28.1351 17.7995C28.6553 17.387 29.7805 16.7922 31.2743 16.6664C31.4729 16.9601 31.6455 17.3777 31.6038 18.0096C31.554 18.7658 31.3272 19.5894 31.1558 20.0785L31.0445 20.3969L31.2656 20.6663C31.9979 21.5569 32.3712 22.5206 32.3077 23.5397L32.3063 23.5577V23.5757C32.3063 25.2227 31.6413 26.5409 30.225 27.5177C28.8088 28.4945 26.573 29.12 23.4263 29.12C20.2796 29.12 18.0424 28.4945 16.6261 27.5177C15.2098 26.5409 14.5463 25.2227 14.5463 23.5757C14.5463 22.609 14.9377 21.5456 15.6606 20.6663L15.8774 20.4034L15.7733 20.0901C15.6019 19.5701 15.3917 18.7277 15.3499 17.967C15.3151 17.3343 15.483 16.9344 15.6534 16.6664ZM11.5747 25.1742C12.0977 25.1801 12.6971 25.2053 13.2975 25.2322C13.3549 25.438 13.4203 25.6404 13.4999 25.8381C11.0524 25.8841 9.22148 26.1036 8.09295 26.2918C8.04523 25.9616 8.00723 25.6286 7.986 25.2915C8.82001 25.2209 9.99572 25.1562 11.5747 25.1742ZM35.4253 25.1845C37.0032 25.1666 38.1784 25.2314 39.0125 25.3018C38.9913 25.6341 38.954 25.9623 38.907 26.2879C37.7382 26.0967 35.8577 25.8772 33.3469 25.8419C33.4248 25.6482 33.4897 25.4492 33.5463 25.2477C34.2087 25.216 34.855 25.191 35.4253 25.1845ZM13.8149 26.4929C14.2565 27.2821 14.8875 27.9868 15.7213 28.5618C16.8613 29.3481 18.3434 29.8974 20.1526 30.1912C19.9159 30.4081 19.7007 30.6463 19.5095 30.8976L19.4647 30.8628C19.4687 30.8587 19.0968 31.0247 18.5411 31.0691C17.9854 31.1135 17.3 31.1 16.6926 31.1C15.7861 31.1 15.3868 30.718 14.7486 30.0224C14.3952 29.5976 13.9644 29.2535 13.5461 28.9924C13.1178 28.725 12.7524 28.5362 12.3003 28.469L12.2396 28.46H12.1774C11.8321 28.46 11.4979 28.4823 11.1859 28.8003C11.0299 28.9593 10.9224 29.2537 10.9922 29.5029C11.0621 29.752 11.2388 29.9051 11.3969 29.9991C12.4083 30.6005 12.587 31.7907 13.2209 32.8493C13.8129 33.9013 15.0904 34.4 16.3963 34.4H18.32V37.5698C13.1162 35.9316 9.19184 31.8951 8.20568 26.9441C9.33855 26.7538 11.2356 26.525 13.8149 26.4929ZM33.0333 26.4981C35.6697 26.5182 37.62 26.7467 38.7957 26.9402C37.8109 31.893 33.8852 35.9311 28.68 37.5698V34.1357C28.68 33.0899 28.2949 31.9367 27.6249 30.975C27.4215 30.683 27.1822 30.4068 26.9153 30.159C28.6285 29.8571 30.0359 29.3172 31.1312 28.5618C31.9632 27.988 32.5928 27.2855 33.0333 26.4981ZM22.5374 30.5057H24.61C25.2115 30.5057 25.8535 30.9333 26.3675 31.6711C26.8815 32.4088 27.2 33.3996 27.2 34.1357V37.963C26.0141 38.2209 24.7756 38.36 23.5 38.36C22.2244 38.36 20.9859 38.2209 19.8 37.963V34.1357C19.8 33.4159 20.1462 32.4275 20.6946 31.6865C21.2431 30.9456 21.9359 30.5057 22.5374 30.5057ZM14.1083 31.2856C14.749 31.8783 15.5246 32.42 16.6926 32.42C17.2691 32.42 17.9888 32.4385 18.6726 32.3839C18.6751 32.3837 18.6774 32.3828 18.6799 32.3826C18.5898 32.6136 18.5226 32.8461 18.466 33.08H16.3963C15.4836 33.08 14.8389 32.7859 14.5419 32.2563L14.5362 32.2473L14.5318 32.2395C14.4102 32.038 14.2505 31.635 14.1083 31.2856Z" fill="black"/>
</svg>
