<svg width="48" height="48" viewBox="0 0 48 48" fill="none" xmlns="http://www.w3.org/2000/svg">
<rect width="48" height="48" fill="#8D8D99"/>
<path d="M23.64 8C15.0103 8 8 15.2165 8 24.1C8 32.9835 15.0103 40.2 23.64 40.2C32.2697 40.2 39.28 32.9835 39.28 24.1C39.28 15.2165 32.2697 8 23.64 8ZM23.64 9.4C31.5347 9.4 37.92 15.9731 37.92 24.1C37.92 32.2269 31.5347 38.8 23.64 38.8C15.7453 38.8 9.36 32.2269 9.36 24.1C9.36 15.9731 15.7453 9.4 23.64 9.4ZM17.52 15C16.4014 15 15.48 15.9485 15.48 17.1C15.48 18.2515 16.4014 19.2 17.52 19.2C18.6386 19.2 19.56 18.2515 19.56 17.1C19.56 15.9485 18.6386 15 17.52 15ZM17.52 16.4C17.9036 16.4 18.2 16.7051 18.2 17.1C18.2 17.4949 17.9036 17.8 17.52 17.8C17.1364 17.8 16.84 17.4949 16.84 17.1C16.84 16.7051 17.1364 16.4 17.52 16.4ZM16.16 19.9C15.9797 19.9 15.8067 19.9738 15.6792 20.105C15.5517 20.2363 15.48 20.4144 15.48 20.6V31.1C15.48 31.2856 15.5517 31.4637 15.6792 31.595C15.8067 31.7262 15.9797 31.8 16.16 31.8H18.88C19.0603 31.8 19.2333 31.7262 19.3608 31.595C19.4883 31.4637 19.56 31.2856 19.56 31.1V20.6C19.56 20.4144 19.4883 20.2363 19.3608 20.105C19.2333 19.9738 19.0603 19.9 18.88 19.9H16.16ZM21.6 19.9C21.4197 19.9 21.2467 19.9738 21.1192 20.105C20.9917 20.2363 20.92 20.4144 20.92 20.6V31.1C20.92 31.2856 20.9917 31.4637 21.1192 31.595C21.2467 31.7262 21.4197 31.8 21.6 31.8H24.32C24.5003 31.8 24.6733 31.7262 24.8008 31.595C24.9283 31.4637 25 31.2856 25 31.1V25.85C25 24.8843 25.7619 24.1 26.7 24.1C27.6381 24.1 28.4 24.8843 28.4 25.85V27.6V31.1C28.4 31.2856 28.4717 31.4637 28.5992 31.595C28.7267 31.7262 28.8997 31.8 29.08 31.8H31.8C31.9803 31.8 32.1533 31.7262 32.2808 31.595C32.4083 31.4637 32.48 31.2856 32.48 31.1V25.15C32.48 22.2587 30.1887 19.9 27.38 19.9C26.5052 19.9 25.7206 20.1913 25 20.5932C24.9982 20.4087 24.9258 20.2324 24.7985 20.1026C24.6711 19.9728 24.4992 19.9 24.32 19.9H21.6ZM16.84 21.3H18.2V30.4H16.84V21.3ZM22.28 21.3H23.64V21.8715C23.64 22.0088 23.6792 22.143 23.7528 22.2575C23.8264 22.3721 23.931 22.4618 24.0537 22.5156C24.1765 22.5693 24.3118 22.5848 24.443 22.5599C24.5742 22.5351 24.6954 22.4711 24.7915 22.376C25.4652 21.7097 26.3713 21.3 27.38 21.3C29.4537 21.3 31.12 23.0153 31.12 25.15V30.4H29.76V27.6V25.85C29.76 24.1207 28.3799 22.7 26.7 22.7C25.0201 22.7 23.64 24.1207 23.64 25.85V30.4H22.28V21.3Z" fill="black"/>
</svg>
