<svg width="48" height="48" viewBox="0 0 48 48" fill="none" xmlns="http://www.w3.org/2000/svg">
<rect width="48" height="48" fill="#323238"/>
<g clip-path="url(#clip0_61497:124)">
<path d="M29.9539 13.3906C25.7676 13.3906 22.3633 16.4059 22.3633 20.1138C22.3633 20.3366 22.4261 20.5545 22.4508 20.7725C17.2746 20.3341 12.6972 18.1254 9.58826 14.7469C9.44334 14.5846 9.21912 14.4974 8.98396 14.512C8.75154 14.5265 8.54373 14.6452 8.42888 14.8244C7.77537 15.8198 7.40076 16.9653 7.40076 18.1956C7.40076 19.6851 8.00232 21.0486 8.93201 22.1675C8.75154 22.0973 8.55466 22.0585 8.38513 21.9738C8.16912 21.872 7.90935 21.8769 7.69881 21.9883C7.48826 22.0997 7.35974 22.3007 7.35701 22.5163V22.5938C7.35701 24.8776 8.69138 26.8611 10.6601 28.0769C10.6383 28.0745 10.6164 28.0817 10.5945 28.0769C10.3539 28.0405 10.1105 28.1156 9.9492 28.2779C9.78787 28.4402 9.73591 28.6654 9.80701 28.8713C10.589 31.0243 12.5851 32.6688 15.057 33.2694C13.0883 34.3059 10.8051 34.9163 8.34138 34.9163C7.80818 34.9163 7.29685 34.892 6.78826 34.8388C6.46013 34.8 6.14568 34.9695 6.03631 35.2456C5.9242 35.5217 6.04724 35.8293 6.32888 35.9819C9.48709 37.7765 13.2359 38.83 17.2664 38.83C23.7988 38.83 28.923 36.413 32.3601 32.9594C35.7972 29.5058 37.5883 25.0205 37.5883 20.8306C37.5883 20.6538 37.5719 20.4819 37.5664 20.3075C38.8488 19.438 39.9945 18.4184 40.8914 17.2269C41.0691 16.9968 41.05 16.6892 40.8449 16.4761C40.6426 16.263 40.3008 16.1976 40.0164 16.3163C39.6554 16.4591 39.2344 16.4737 38.857 16.5875C39.3547 15.999 39.7812 15.3645 40.0383 14.65C40.1258 14.4054 40.0301 14.1366 39.8031 13.9767C39.5761 13.8193 39.259 13.7999 39.0101 13.9331C37.8152 14.5604 36.4918 15.0012 35.0945 15.27C33.7383 14.1463 31.9527 13.3906 29.9539 13.3906ZM29.9539 14.6306C31.7394 14.6306 33.3527 15.3063 34.482 16.3744C34.6515 16.5294 34.9004 16.5948 35.1383 16.5488C36.0515 16.3889 36.9183 16.154 37.7633 15.8513C37.2765 16.4325 36.675 16.929 35.9695 17.3044C35.6496 17.4424 35.4992 17.7694 35.6168 18.0673C35.7316 18.3627 36.0816 18.5347 36.4289 18.4669C37.1289 18.3918 37.7523 18.1399 38.4195 17.9825C37.8207 18.5565 37.1644 19.0748 36.4508 19.5325C36.2566 19.6584 36.15 19.8619 36.1664 20.075C36.1773 20.3269 36.1883 20.5763 36.1883 20.8306C36.1883 24.7056 34.5094 28.9124 31.3101 32.1263C28.1109 35.3401 23.4133 37.59 17.2664 37.59C14.4746 37.59 11.8386 37.0427 9.45701 36.0788C12.4101 35.8777 15.1336 34.9526 17.332 33.4244C17.5617 33.2621 17.6519 32.9909 17.559 32.7438C17.466 32.4968 17.209 32.3273 16.9164 32.32C14.6086 32.2837 12.6754 31.0945 11.6445 29.4138C11.6828 29.4138 11.7156 29.4138 11.7539 29.4138C12.4457 29.4138 13.1293 29.3363 13.7664 29.1813C14.0726 29.1013 14.2832 28.8495 14.2722 28.5661C14.2613 28.2827 14.0344 28.0405 13.7226 27.98C11.2316 27.5344 9.36404 25.7373 8.93201 23.5044C9.63748 23.7199 10.3594 23.8895 11.1414 23.9113C11.4613 23.9282 11.7511 23.7514 11.8496 23.4826C11.948 23.2137 11.8277 22.9183 11.557 22.7681C9.89451 21.7824 8.80076 20.1041 8.80076 18.1956C8.80076 17.4884 9.00857 16.8394 9.28201 16.2194C12.782 19.6221 17.682 21.8817 23.2164 22.1288C23.4351 22.1384 23.6484 22.0585 23.7906 21.9108C23.9328 21.7606 23.9875 21.562 23.9383 21.3731C23.8316 20.9711 23.7633 20.5448 23.7633 20.1138C23.7633 17.0767 26.525 14.6306 29.9539 14.6306Z" fill="black"/>
</g>
<defs>
<clipPath id="clip0_61497:124">
<rect width="35" height="31" fill="white" transform="translate(6 10)"/>
</clipPath>
</defs>
</svg>
